<?xml version="1.0" encoding="utf-8"?>
<!-- Generator: Adobe Illustrator 24.0.2, SVG Export Plug-In . SVG Version: 6.00 Build 0)  -->
<svg version="1.1" id="Layer_1" xmlns="http://www.w3.org/2000/svg" xmlns:xlink="http://www.w3.org/1999/xlink" x="0px" y="0px"
	 viewBox="0 0 512 512" style="enable-background:new 0 0 512 512;" xml:space="preserve">
<style type="text/css">
	.st0{fill:#FFFA00;}
</style>
<g>
	<g>
		<g>
			<path class="st0" d="M3.8714,388.3909c0-2.627,0-5.2526,0-7.8795c3.2291-3.7413,6.6378-6.9261,11.8823-7.9654
				c41.3609-8.1933,69.0318-34.5648,89.9013-69.1833c17.5466-29.1057,14.7306-35.7623-17.6056-47.2115
				c-1.8532-0.6571-3.7547-1.1894-5.5704-1.935c-6.9878-2.8737-13.9005-5.9378-19.6734-10.953
				c-14.4825-12.5823-5.9164-30.7176,11.1569-34.8304c12.4804-3.0051,23.349,5.026,35.4646,6.5332
				c8.0968,1.0084,11.3285-1.7178,10.3349-10.3416c-2.5599-22.2038-2.4929-44.5336-1.4496-66.8326
				c1.99-42.5155,22.9024-74.9026,58.3242-95.8955c51.7226-30.6532,105.7825-31.0354,157.8751-0.4774
				c32.5132,19.0713,53.5007,47.9491,58.0573,86.6589c2.9649,25.1928,1.7848,50.4245-0.2011,75.6388
				c-0.8622,10.9477,1.3758,12.9591,12.2042,10.4247c13.4432-3.1459,24.7074-10.076,38.6776-3.9411
				c7.4759,3.2854,13.9917,10.3496,13.7919,18.5134c-0.1368,5.5905-3.3953,10.7358-7.614,14.4087
				c-6.4581,5.6213-14.8727,8.7431-22.7053,11.9172c-6.0706,2.4607-12.3879,4.3702-18.3056,7.1447
				c-12.2136,5.7246-15.7269,13.2809-10.009,25.3685c19.7874,41.8275,48.865,73.5884,95.8995,84.6166
				c5.738,1.3463,10.3389,3.6917,13.8214,8.3422c0,2.627,0,5.2526,0,7.8795c-4.4574,9.1722-12.4335,14.221-21.485,17.6525
				c-9.187,3.4839-18.4263,7.3807-28.3079,8.0136c-13.631,0.8716-20.8065,6.8188-22.8877,21.013
				c-1.9806,13.5023-6.0451,15.4171-19.8102,14.3082c-3.2599-0.2628-6.497-0.8649-9.722-1.4375
				c-26.9575-4.7899-52.2643-2.0597-74.4346,15.8436c-4.3246,3.4919-9.1293,6.4099-13.8093,9.4458
				c-37.7657,24.5009-76.4487,27.3116-115.8961,4.3072c-10.7532-6.2717-20.9486-13.5022-31.3827-20.3197
				c-8.6345-5.6428-17.9167-8.7954-28.2824-10.3657c-16.3505-2.4781-32.0184,1.1921-47.9303,2.9461
				c-8.1786,0.9011-16.0796-1.4295-16.5422-9.8897c-1.113-20.3881-13.6068-25.3712-30.7525-27.2566
				c-7.9855-0.877-15.8757-4.1235-23.404-7.2694C15.263,401.9454,7.787,397.071,3.8714,388.3909z"/>
		</g>
	</g>
</g>
</svg>
